HIERARCHY
ROOT hip
{
  OFFSET 0 0 0
  CHANNELS 6 Xposition Yposition Zposition Zrotation Yrotation Xrotation
  JOINT abdomen
  {
    OFFSET 0 20.6881 -0.73152
    CHANNELS 3 Zrotation Xrotation Yrotation
    JOINT chest
    {
      OFFSET 0 11.7043 -0.48768
      CHANNELS 3 Zrotation Xrotation Yrotation
      JOINT neck
      {
        OFFSET 0 22.1894 -2.19456
        CHANNELS 3 Zrotation Xrotation Yrotation
        JOINT head
        {
          OFFSET -0.24384 7.07133 1.2192
          CHANNELS 3 Zrotation Xrotation Yrotation
          JOINT leftEye
          {
            OFFSET 4.14528 8.04674 8.04672
            CHANNELS 3 Zrotation Xrotation Yrotation
            End Site
            {
              OFFSET 1 0 0
            }
          }
          JOINT rightEye
          {
            OFFSET -3.6576 8.04674 8.04672
            CHANNELS 3 Zrotation Xrotation Yrotation
            End Site
            {
              OFFSET 1 0 0
            }
          }
        }
      }
      JOINT rCollar
      {
        OFFSET -2.68224 19.2634 -4.8768
        CHANNELS 3 Zrotation Xrotation Yrotation
        JOINT rShldr
        {
          OFFSET -8.77824 -1.95073 1.46304
          CHANNELS 3 Zrotation Xrotation Yrotation
          JOINT rForeArm
          {
            OFFSET -28.1742 -1.7115 0.48768
            CHANNELS 3 Zrotation Xrotation Yrotation
            JOINT rHand
            {
              OFFSET -22.5879 0.773209 7.07136
              CHANNELS 3 Zrotation Xrotation Yrotation
              JOINT rThumb1
              {
                OFFSET -1.2192 -0.487915 3.41376
                CHANNELS 3 Zrotation Xrotation Yrotation
                JOINT rThumb2
                {
                  OFFSET -3.37035 -0.52449 3.41376
                  CHANNELS 3 Zrotation Xrotation Yrotation
                  End Site
                  {
                    OFFSET -1.78271 -1.18214 1.43049
                  }
                }
              }
              JOINT rIndex1
              {
                OFFSET -7.75947 0.938293 5.60832
                CHANNELS 3 Zrotation Xrotation Yrotation
                JOINT rIndex2
                {
                  OFFSET -2.54057 -0.884171 1.56538
                  CHANNELS 3 Zrotation Xrotation Yrotation
                  End Site
                  {
                    OFFSET -1.62519 -0.234802 1.16502
                  }
                }
              }
              JOINT rMid1
              {
                OFFSET -8.24714 1.18213 3.41376
                CHANNELS 3 Zrotation Xrotation Yrotation
                JOINT rMid2
                {
                  OFFSET -3.10165 -0.590103 1.0647
                  CHANNELS 3 Zrotation Xrotation Yrotation
                  End Site
                  {
                    OFFSET -2.48547 -0.328903 0.83742
                  }
                }
              }
              JOINT rRing1
              {
                OFFSET -8.82822 0.546677 1.51678
                CHANNELS 3 Zrotation Xrotation Yrotation
                JOINT rRing2
                {
                  OFFSET -2.60934 -0.819778 -0.0198488
                  CHANNELS 3 Zrotation Xrotation Yrotation
                  End Site
                  {
                    OFFSET -2.33842 -0.294052 0.168128
                  }
                }
              }
              JOINT rPinky1
              {
                OFFSET -8.27202 -0.0477905 -0.4584
                CHANNELS 3 Zrotation Xrotation Yrotation
                JOINT rPinky2
                {
                  OFFSET -1.82734 -0.647385 -0.700984
                  CHANNELS 3 Zrotation Xrotation Yrotation
                  End Site
                  {
                    OFFSET -1.69225 -0.51767 -0.607171
                  }
                }
              }
            }
          }
        }
      }
      JOINT lCollar
      {
        OFFSET 2.68224 19.2634 -4.8768
        CHANNELS 3 Zrotation Xrotation Yrotation
        JOINT lShldr
        {
          OFFSET 8.77824 -1.95073 1.46304
          CHANNELS 3 Zrotation Xrotation Yrotation
          JOINT lForeArm
          {
            OFFSET 28.1742 -1.7115 0.48768
            CHANNELS 3 Zrotation Xrotation Yrotation
            JOINT lHand
            {
              OFFSET 22.5879 0.773209 7.07136
              CHANNELS 3 Zrotation Xrotation Yrotation
              JOINT lThumb1
              {
                OFFSET 1.2192 -0.487915 3.41376
                CHANNELS 3 Zrotation Xrotation Yrotation
                JOINT lThumb2
                {
                  OFFSET 3.37035 -0.52449 3.41376
                  CHANNELS 3 Zrotation Xrotation Yrotation
                  End Site
                  {
                    OFFSET 1.78271 -1.18214 1.43049
                  }
                }
              }
              JOINT lIndex1
              {
                OFFSET 7.75947 0.938293 5.60832
                CHANNELS 3 Zrotation Xrotation Yrotation
                JOINT lIndex2
                {
                  OFFSET 2.54057 -0.884171 1.56538
                  CHANNELS 3 Zrotation Xrotation Yrotation
                  End Site
                  {
                    OFFSET 1.62519 -0.234802 1.16502
                  }
                }
              }
              JOINT lMid1
              {
                OFFSET 8.24714 1.18213 3.41376
                CHANNELS 3 Zrotation Xrotation Yrotation
                JOINT lMid2
                {
                  OFFSET 3.10165 -0.590103 1.0647
                  CHANNELS 3 Zrotation Xrotation Yrotation
                  End Site
                  {
                    OFFSET 2.48547 -0.328903 0.83742
                  }
                }
              }
              JOINT lRing1
              {
                OFFSET 8.82822 0.546677 1.51678
                CHANNELS 3 Zrotation Xrotation Yrotation
                JOINT lRing2
                {
                  OFFSET 2.60934 -0.819778 -0.0198488
                  CHANNELS 3 Zrotation Xrotation Yrotation
                  End Site
                  {
                    OFFSET 2.33842 -0.294052 0.168128
                  }
                }
              }
              JOINT lPinky1
              {
                OFFSET 8.27202 -0.0477905 -0.4584
                CHANNELS 3 Zrotation Xrotation Yrotation
                JOINT lPinky2
                {
                  OFFSET 1.82734 -0.647385 -0.700984
                  CHANNELS 3 Zrotation Xrotation Yrotation
                  End Site
                  {
                    OFFSET 1.69225 -0.51767 -0.607171
                  }
                }
              }
            }
          }
        }
      }
    }
  }
  JOINT rButtock
  {
    OFFSET -8.77824 4.35084 1.2192
    CHANNELS 3 Zrotation Xrotation Yrotation
    JOINT rThigh
    {
      OFFSET 0 -1.70687 -2.19456
      CHANNELS 3 Zrotation Xrotation Yrotation
      JOINT rShin
      {
        OFFSET 0 -36.8199 0.73152
        CHANNELS 3 Zrotation Xrotation Yrotation
        JOINT rFoot
        {
          OFFSET 0.73152 -45.1104 -5.12064
          CHANNELS 3 Zrotation Xrotation Yrotation
          End Site
          {
            OFFSET -1.1221 -3.69964 12.103
          }
        }
      }
    }
  }
  JOINT lButtock
  {
    OFFSET 8.77824 4.35084 1.2192
    CHANNELS 3 Zrotation Xrotation Yrotation
    JOINT lThigh
    {
      OFFSET 0 -1.70687 -2.19456
      CHANNELS 3 Zrotation Xrotation Yrotation
      JOINT lShin
      {
        OFFSET 0 -36.8199 0.73152
        CHANNELS 3 Zrotation Xrotation Yrotation
        JOINT lFoot
        {
          OFFSET -0.73152 -45.1104 -5.12064
          CHANNELS 3 Zrotation Xrotation Yrotation
          End Site
          {
            OFFSET 1.1221 -3.69964 12.103
          }
        }
      }
    }
  }
}
MOTION
Frames:	4
Frame Time:	0.03333
-49.36901121400297 70.19380331039429 7.986503932625055 23.077083587646484 -70.8348617553711 -15.725964546203613 -15.004029273986816 13.835826873779297 8.097387313842773 2.8905951976776123 -9.293841361999512 2.1997361183166504 -9.589242935180664 16.25476837158203 -12.704859733581543 10.647878646850586 -23.04660415649414 -23.746307373046875 0.11257022619247437 -0.15729166567325592 0.05480784550309181 0.09158159047365189 0.25177621841430664 0.11445967853069305 -0.03991379588842392 -0.10487426072359085 -0.08691927790641785 30.81361198425293 -15.823254585266113 64.64898681640625 -9.867287635803223 -4.42109489440918 17.29275131225586 -0.4773906469345093 22.222976684570312 3.3443784713745117 -0.15416944026947021 0.007245078682899475 -0.2606850564479828 0.11115597188472748 0.008598268032073975 0.22682200372219086 0.04903544485569 0.04110220819711685 -0.042886149138212204 7.971653461456299 5.690581321716309 0.3279423415660858 -0.03897784650325775 0.17198896408081055 -0.030627116560935974 2.7688119411468506 0.815438449382782 0.16156578063964844 -0.10773157328367233 0.22129440307617188 0.1804978847503662 10.282065391540527 0.8301493525505066 -0.2000906616449356 0.005396930500864983 0.07818163931369781 -0.041023023426532745 1.9786937236785889 -0.8402887582778931 -0.4830077886581421 0.08814803510904312 -0.2664426565170288 -0.02103053219616413 -110.7859115600586 45.7606315612793 47.76619338989258 28.130653381347656 -40.5945930480957 -84.9932861328125 6.3314313888549805 -55.13645935058594 11.94957447052002 0.17424753308296204 0.2566404342651367 0.00023877958301454782 -0.02200379967689514 -0.13454605638980865 0.12292882800102234 -0.08770690113306046 0.008571606129407883 -0.17167529463768005 -7.567503452301025 5.610964775085449 -0.34611544013023376 0.1418513059616089 -0.056667160242795944 -0.2144717276096344 -2.8471853733062744 1.0016266107559204 -0.09595223516225815 0.2568557858467102 0.026455998420715332 -0.09596329182386398 -10.142671585083008 0.848483681678772 -0.004002236761152744 0.2613176703453064 0.08487056940793991 0.23998188972473145 -2.2488176822662354 -0.7953523993492126 0.26539134979248047 -0.12336376309394836 -0.030466170981526375 -0.18377242982387543 -37.46527862548828 -52.58944320678711 -27.73073959350586 -1.855522632598877 61.699588775634766 2.242614984512329 0.2688952684402466 2.6985466480255127 12.490499496459961 -0.02591838873922825 0.07771385461091995 0.06615308672189713 5.219034671783447 4.0338592529296875 -7.477431774139404 0.11348133534193039 37.20637512207031 -2.470017671585083 13.986407279968262 -17.06012725830078 33.020267486572266
-49.20841935090721 70.10577917098999 8.455501031130552 23.359619140625 -70.73251342773438 -15.77210807800293 -15.096190452575684 13.504805564880371 8.204920768737793 2.807623863220215 -9.268057823181152 2.3035340309143066 -9.625709533691406 16.33287239074707 -12.629050254821777 10.622244834899902 -23.16655921936035 -23.75423812866211 0.11917205154895782 -0.17129676043987274 0.0724271908402443 0.07229055464267731 0.2613026797771454 0.09907529503107071 -0.019437892362475395 -0.14695608615875244 -0.07592140883207321 30.806440353393555 -16.27117347717285 64.40404510498047 -9.87032699584961 -4.369756698608398 17.167556762695312 -0.5101869702339172 22.720535278320312 3.483786106109619 -0.18954682350158691 0.05070948600769043 -0.2832317650318146 0.10974778234958649 0.005894849542528391 0.1980869024991989 0.037684038281440735 0.0376422218978405 0.004428456537425518 7.967186450958252 5.661147594451904 0.3590371310710907 -0.044990215450525284 0.20215843617916107 -0.07562050223350525 2.7619361877441406 0.8344346880912781 0.1596454232931137 -0.11515098065137863 0.2616470456123352 0.15810321271419525 10.285536766052246 0.8604791760444641 -0.23017984628677368 -0.025042617693543434 0.0431121401488781 -0.0023827399127185345 2.006279706954956 -0.8258684277534485 -0.4348819851875305 0.09351146221160889 -0.24938321113586426 -0.03379403427243233 -110.65799713134766 45.943450927734375 47.78091049194336 28.04652214050293 -40.42974853515625 -84.85220336914062 6.320553779602051 -55.24012756347656 11.919670104980469 0.2214682251214981 0.27940353751182556 -0.027790967375040054 0.018625490367412567 -0.15336303412914276 0.10452520102262497 -0.08916342258453369 -0.03321461379528046 -0.16278962790966034 -7.5614519119262695 5.615664005279541 -0.32355615496635437 0.13329896330833435 -0.08075123280286789 -0.19286291301250458 -2.815347194671631 0.998785138130188 -0.08856089413166046 0.2630451023578644 0.05128806084394455 -0.12952540814876556 -10.111078262329102 0.8800796270370483 0.0739666149020195 0.31227779388427734 0.08228544890880585 0.22871847450733185 -2.314058780670166 -0.8269848823547363 0.26600825786590576 -0.08909015357494354 -0.017869940027594566 -0.22559674084186554 -38.62406921386719 -52.7649040222168 -29.043676376342773 -1.9875833988189697 62.142860412597656 2.404336929321289 0.35579240322113037 2.0502266883850098 12.515380859375 -0.04037899523973465 0.09413069486618042 -0.018794100731611252 5.500101089477539 5.00914192199707 -7.317135810852051 0.049749705940485 35.72561264038086 -2.36803936958313 13.955016136169434 -17.083457946777344 33.20281219482422
-49.044184340164065 70.12410759925842 8.945673797279596 22.827045440673828 -70.68193817138672 -16.528635025024414 -14.68210220336914 13.307769775390625 8.274796485900879 2.66767954826355 -9.244844436645508 2.3760833740234375 -9.57948112487793 16.364490509033203 -12.480008125305176 10.54994010925293 -23.369915008544922 -23.55303192138672 0.13560231029987335 -0.17281009256839752 0.11364731192588806 0.05766044184565544 0.2764250338077545 0.06906182318925858 0.003066480625420809 -0.17175254225730896 -0.06751029193401337 30.543115615844727 -16.4146671295166 63.94973373413086 -10.019797325134277 -4.372368812561035 17.34375762939453 -0.5052528381347656 22.5396728515625 3.485121965408325 -0.20471295714378357 0.09825599193572998 -0.2892557382583618 0.1047007143497467 -0.007657306268811226 0.1553698182106018 0.013034573756158352 0.03226257860660553 0.04822654277086258 7.970195770263672 5.6199049949646 0.38516664505004883 -0.06632834672927856 0.22080488502979279 -0.09407204389572144 2.7519114017486572 0.8412493467330933 0.17459651827812195 -0.11125209927558899 0.2832868993282318 0.13424886763095856 10.299813270568848 0.8893992900848389 -0.25912871956825256 -0.04598269611597061 0.025556879118084908 0.02405591681599617 2.045611619949341 -0.8185175657272339 -0.3584364652633667 0.08830051124095917 -0.22435782849788666 -0.05152582377195358 -110.37673950195312 46.428592681884766 47.51411437988281 27.976516723632812 -40.31056594848633 -84.74950408935547 6.143404483795166 -54.95073318481445 11.667218208312988 0.24863463640213013 0.2935897409915924 -0.02924824319779873 0.047172266989946365 -0.16832205653190613 0.06840447336435318 -0.07496487349271774 -0.06321744620800018 -0.1486268937587738 -7.552329063415527 5.609211444854736 -0.2994414269924164 0.10866773128509521 -0.09497381746768951 -0.1565961092710495 -2.8015663623809814 0.9790046811103821 -0.07420414686203003 0.25046369433403015 0.061424046754837036 -0.16248631477355957 -10.080204010009766 0.8961727619171143 0.15177655220031738 0.32032105326652527 0.07813955098390579 0.1962416023015976 -2.358772039413452 -0.8414666652679443 0.28126686811447144 -0.07340460270643234 -0.0051293522119522095 -0.26239481568336487 -38.78860855102539 -52.72215270996094 -29.44754981994629 -2.0883851051330566 62.29236602783203 2.5375189781188965 0.33640679717063904 1.1744887828826904 11.928694725036621 -0.03967547416687012 0.10552773624658585 -0.0723351314663887 5.916418552398682 5.1215434074401855 -7.229354381561279 0.009070645086467266 34.993125915527344 -2.269972324371338 13.675219535827637 -16.987720489501953 32.78632354736328
-48.87102008797228 70.08684873580933 9.45466561242938 22.195457458496094 -70.61100769042969 -17.45313835144043 -14.231493949890137 13.173466682434082 8.352919578552246 2.5188446044921875 -9.211282730102539 2.417208194732666 -9.496567726135254 16.351070404052734 -12.340433120727539 10.443922996520996 -23.605344772338867 -23.316360473632812 0.14969727396965027 -0.175250843167305 0.14803798496723175 0.04026651382446289 0.2788639962673187 0.03984320908784866 0.0225320216268301 -0.1913372278213501 -0.07086217403411865 30.23052406311035 -16.653539657592773 63.684234619140625 -10.011677742004395 -4.293099403381348 17.305450439453125 -0.5193212628364563 22.43592643737793 3.4883294105529785 -0.19690532982349396 0.14402563869953156 -0.2891690731048584 0.10046744346618652 -0.023859769105911255 0.11130154877901077 -0.015122895129024982 0.021315043792128563 0.06593380123376846 7.956379413604736 5.586636066436768 0.4036683738231659 -0.08165149390697479 0.21652966737747192 -0.08962635695934296 2.745368480682373 0.8351000547409058 0.19119328260421753 -0.10003398358821869 0.2860413193702698 0.11588749289512634 10.313302993774414 0.9048314094543457 -0.2705008387565613 -0.06827960163354874 0.008380716666579247 0.06202949956059456 2.0723531246185303 -0.8128314018249512 -0.29147228598594666 0.08623771369457245 -0.19412198662757874 -0.07774171233177185 -110.33641052246094 46.82830810546875 47.55634689331055 27.912521362304688 -40.251712799072266 -84.74272918701172 5.997130393981934 -54.72319412231445 11.459805488586426 0.2659023106098175 0.299973726272583 -0.03824529051780701 0.05870059132575989 -0.16989263892173767 0.03855235129594803 -0.07434973865747452 -0.07758278399705887 -0.1525970697402954 -7.547060489654541 5.605871200561523 -0.2866309881210327 0.07435426115989685 -0.09273018687963486 -0.134726881980896 -2.792997360229492 0.9530583024024963 -0.05176667124032974 0.22516152262687683 0.05711940675973892 -0.18432970345020294 -10.057759284973145 0.8897784948348999 0.20371682941913605 0.2909713089466095 0.07407353818416595 0.16249030828475952 -2.4062724113464355 -0.8446532487869263 0.27512896060943604 -0.059600185602903366 -0.006764516234397888 -0.28839167952537537 -38.773677825927734 -52.73786544799805 -29.576330184936523 -2.143773317337036 62.34946823120117 2.633396625518799 0.29281729459762573 0.3945457339286804 11.344757080078125 -0.03293580561876297 0.11128494143486023 -0.1042265072464943 6.3041276931762695 5.1768927574157715 -7.260074138641357 -0.022827327251434326 34.3936653137207 -2.162295341491699 13.34217357635498 -16.887866973876953 32.27886962890625
